<svg width="1160" height="220" viewBox="0 0 1160 220" fill="none" xmlns="http://www.w3.org/2000/svg">
<g clip-path="url(#clip0_192_599)">
<path d="M856.028 86.5024L857.029 89.8897L852.545 90.4785L850.786 88.1157L851.073 90.6735L835.474 92.7189C835.474 92.7189 850.939 73.8935 872.303 87.8864L859.763 89.5303L856.024 86.4985L856.028 86.5024Z" fill="url(#paint0_linear_192_599)"/>
<path d="M848.217 76.8488L851.092 79.2689L847.708 82.2701L844.818 81.1729L846.596 83.2565L834.832 93.7015C834.832 93.7015 836.384 68.606 862.607 69.0381L853.149 77.4376L848.209 76.8527L848.217 76.8488Z" fill="url(#paint1_linear_192_599)"/>
<path d="M853.929 98.924L852.59 102.434L848.645 100.224L848.733 97.1347L847.349 99.4974L833.62 91.8166C833.62 91.8166 857.832 85.0419 866.037 109.954L854.999 103.779L853.932 98.924H853.929Z" fill="url(#paint2_linear_192_599)"/>
<path d="M815.559 90.9679L815.395 94.7222L819.895 94.2635L821.042 91.3922L821.37 94.1105L837.023 92.5201C837.023 92.5201 817.497 76.6768 800.068 96.2745L812.65 94.9937L815.559 90.9602V90.9679Z" fill="url(#paint3_linear_192_599)"/>
<path d="M818.155 78.8293L815.968 81.3985L819.853 83.7191L822.345 82.3543L821.126 84.48L834.633 92.5469C834.633 92.5469 827.53 69.818 802.744 73.4997L813.602 79.9839L818.155 78.8293Z" fill="url(#paint4_linear_192_599)"/>
<path d="M829.544 72.7733L825.679 73.9776L827.583 78.0799L830.863 78.1258L828.206 79.4256L834.828 93.6976C834.828 93.6976 844.669 69.4242 819.195 60L824.517 71.4734L829.541 72.7695L829.544 72.7733Z" fill="url(#paint5_linear_192_599)"/>
<path d="M835.581 91.2967C835.581 91.2967 849.226 133.13 831.399 188.735L819.203 179.601C819.203 179.601 840.746 132.396 833.345 90.4976L835.581 91.2967Z" fill="url(#paint6_linear_192_599)"/>
<path d="M795.269 109.403L796.837 110.971L794.539 112.638L792.861 111.862L793.786 113.184L785.799 118.98C785.799 118.98 788.69 103.974 804.655 105.293L798.232 109.954L795.266 109.403H795.269Z" fill="url(#paint7_linear_192_599)"/>
<path d="M788.074 106.417L790.383 106.891L789.416 109.56L787.497 109.82L789.103 110.436L785.742 119.714C785.742 119.714 779.086 105.416 793.675 97.8075L790.976 105.267L788.078 106.421L788.074 106.417Z" fill="url(#paint8_linear_192_599)"/>
<path d="M797.831 116.878L798.145 119.214L795.308 119.179L794.432 117.451L794.379 119.168L784.511 119.042C784.511 119.042 795.832 108.061 807.81 119.34L799.876 119.237L797.835 116.878H797.831Z" fill="url(#paint9_linear_192_599)"/>
<path d="M774.295 123.977L775.328 126.095L777.671 124.497L777.446 122.57L778.44 123.97L786.591 118.407C786.591 118.407 771.088 115.517 767.341 131.536L773.894 127.066L774.292 123.973L774.295 123.977Z" fill="url(#paint10_linear_192_599)"/>
<path d="M772.093 116.507L771.657 118.575L774.49 118.69L775.458 117.191L775.419 118.728L785.279 119.133C785.279 119.133 774.563 108.73 762 118.178L769.925 118.503L772.089 116.503L772.093 116.507Z" fill="url(#paint11_linear_192_599)"/>
<path d="M776.563 109.759L774.792 111.579L777.071 113.272L778.895 112.317L777.82 113.827L785.742 119.714C785.742 119.714 783.903 103.389 767.039 105.817L773.408 110.55L776.566 109.763L776.563 109.759Z" fill="url(#paint12_linear_192_599)"/>
<path d="M785.432 118.166C785.432 118.166 805.474 137.144 812.286 173.132L802.832 171.748C802.832 171.748 800.58 139.278 783.964 118.395L785.436 118.166H785.432Z" fill="url(#paint13_linear_192_599)"/>
<path d="M151.988 191.998C151.988 191.998 135.953 192.299 132.758 186.121C129.551 179.943 132.758 159.589 111.919 158.069C91.0799 156.537 87.8729 180.885 87.8729 180.885C87.8729 180.885 83.3905 173.979 74.0916 174.368C64.7926 174.745 60.9541 187.515 60.9541 187.515C60.9541 187.515 50.3798 184.878 43 191.998H152H151.988Z" fill="#E6F4FF"/>
<path d="M436 116.998C436 116.998 424.088 117.216 421.707 112.677C419.326 108.137 421.707 93.1759 406.223 92.0509C390.74 90.9259 388.354 108.826 388.354 108.826C388.354 108.826 385.019 103.751 378.107 104.034C371.2 104.312 368.339 113.703 368.339 113.703C368.339 113.703 360.479 111.765 355 116.998H436Z" fill="#E6F4FF"/>
<path d="M229.738 108.328L248.771 96.4354L201.536 86L194.477 89.0496L229.738 108.328Z" fill="#E6F4FF"/>
<path d="M253.4 102.229L257.014 148L249.731 144.998L231.065 114.277L253.4 102.229Z" fill="#E6F4FF"/>
<path d="M178.051 121.323L182.278 118.858L202.89 121.901C227.988 106.742 259.438 90.7855 263.284 89.3016C269.369 86.9463 276.68 88.6685 276.68 88.6685L276.483 91.0034C276.313 93.0047 271.48 96.9869 269.737 97.9943C244.121 113.385 198.534 135.073 199.99 134.127L178.058 121.336L178.051 121.323Z" fill="#E6F4FF"/>
<path d="M102.854 40.5642L86.4046 43.2935C84.4389 43.6196 83.1186 45.4865 83.4554 47.4632L87.5795 71.6625C87.9164 73.6392 89.7829 74.9772 91.7486 74.6511L108.198 71.9218C110.164 71.5957 111.484 69.7288 111.147 67.7521L107.023 43.5528C106.687 41.5761 104.82 40.2381 102.854 40.5642Z" fill="#E6F4FF"/>
<path fill-rule="evenodd" clip-rule="evenodd" d="M99.7569 31.802C99.9341 31.3718 99.8643 30.8767 99.5735 30.5125C99.2825 30.1467 98.8183 29.9683 98.3591 30.0451L87.8155 31.8077C87.1503 31.9189 86.5905 32.366 86.335 32.9904C86.148 33.4449 86.2224 33.9671 86.5287 34.3513C86.8353 34.7372 87.3254 34.9252 87.81 34.8442L98.102 33.1236C98.8449 32.9994 99.4704 32.4995 99.7569 31.802Z" fill="#E6F4FF"/>
<path d="M93.8135 79.1252C95.4462 78.8522 96.5452 77.3032 96.2681 75.6653C95.9911 74.0274 94.443 72.9209 92.8103 73.1939C91.1776 73.4668 90.0786 75.0159 90.3556 76.6537C90.6326 78.2916 92.1808 79.3981 93.8135 79.1252Z" fill="#E6F4FF"/>
<path d="M107.589 76.8223C109.221 76.5494 110.32 75.0003 110.043 73.3624C109.766 71.7246 108.218 70.6181 106.585 70.891C104.953 71.164 103.854 72.713 104.131 74.3509C104.408 75.9888 105.956 77.0953 107.589 76.8223Z" fill="#E6F4FF"/>
<path d="M93.4149 69.4093C92.5708 69.5505 91.771 68.9788 91.6277 68.132L88.3019 48.4682C88.1586 47.6214 88.7264 46.8211 89.5705 46.68C90.4147 46.5389 91.2145 47.1105 91.3577 47.9574L94.6836 67.6211C94.8268 68.468 94.2591 69.2682 93.4149 69.4093Z" fill="#E6F4FF"/>
<path d="M99.1553 68.4497C98.3111 68.5908 97.5113 68.0192 97.3681 67.1723L94.0422 47.5086C93.899 46.6617 94.4667 45.8615 95.3109 45.7203C96.155 45.5792 96.9548 46.1509 97.0981 46.9977L100.424 66.6615C100.567 67.5083 99.9994 68.3086 99.1553 68.4497Z" fill="#E6F4FF"/>
<path d="M104.862 67.4957C104.018 67.6368 103.218 67.0652 103.075 66.2183L99.7487 46.5546C99.6055 45.7077 100.173 44.9075 101.017 44.7663C101.862 44.6252 102.661 45.1969 102.805 46.0437L106.13 65.7075C106.274 66.5543 105.706 67.3546 104.862 67.4957Z" fill="#E6F4FF"/>
<path d="M97.9398 32.421L97.2341 32.539L98.7119 41.2768L99.4177 41.1588L97.9398 32.421Z" fill="#E6F4FF"/>
<path d="M89.1571 33.8893L88.4514 34.0073L89.9293 42.745L90.635 42.627L89.1571 33.8893Z" fill="#E6F4FF"/>
<path d="M947 135.999C947 135.999 957.441 136.19 959.528 132.196C961.616 128.201 959.528 115.035 973.1 114.045C986.673 113.055 988.764 128.807 988.764 128.807C988.764 128.807 991.687 124.341 997.746 124.59C1003.8 124.834 1006.31 133.098 1006.31 133.098C1006.31 133.098 1013.2 131.393 1018 135.999H947Z" fill="#E6F4FF"/>
<path d="M1138.99 203.998C1138.99 203.998 1126.34 204.237 1123.82 199.331C1121.29 194.425 1123.82 178.262 1107.38 177.055C1090.93 175.839 1088.4 195.173 1088.4 195.173C1088.4 195.173 1084.87 189.689 1077.53 189.998C1070.19 190.297 1067.17 200.438 1067.17 200.438C1067.17 200.438 1058.82 198.344 1053 203.998H1139H1138.99Z" fill="#E6F4FF"/>
<path d="M656 37.9985C656 37.9985 666.441 38.1904 668.528 34.1957C670.616 30.2009 668.528 17.0347 682.1 16.0448C695.673 15.0548 697.764 30.8071 697.764 30.8071C697.764 30.8071 700.687 26.3413 706.746 26.5899C712.8 26.8341 715.307 35.0984 715.307 35.0984C715.307 35.0984 722.197 33.3932 727 37.9985H656Z" fill="#E6F4FF"/>
<path d="M750.871 -32C754.248 23.3773 691.546 92.1567 515.518 50.5504C413.722 26.4917 359.083 46.7583 304 72" stroke="url(#paint14_linear_192_599)" stroke-dasharray="11 11"/>
<path d="M885.108 -20C882.283 25.7928 934.745 82.6681 1082.03 48.2629C1167.2 28.3681 1212.91 45.1271 1259 66" stroke="url(#paint15_linear_192_599)" stroke-dasharray="11 11"/>
</g>
<defs>
<linearGradient id="paint0_linear_192_599" x1="798.125" y1="118.166" x2="798.125" y2="175.5" gradientUnits="userSpaceOnUse">
<stop stop-color="#EBF3FE"/>
<stop offset="1" stop-color="white"/>
</linearGradient>
<linearGradient id="paint1_linear_192_599" x1="798.125" y1="118.166" x2="798.125" y2="175.5" gradientUnits="userSpaceOnUse">
<stop stop-color="#EBF3FE"/>
<stop offset="1" stop-color="white"/>
</linearGradient>
<linearGradient id="paint2_linear_192_599" x1="798.125" y1="118.166" x2="798.125" y2="175.5" gradientUnits="userSpaceOnUse">
<stop stop-color="#EBF3FE"/>
<stop offset="1" stop-color="white"/>
</linearGradient>
<linearGradient id="paint3_linear_192_599" x1="798.125" y1="118.166" x2="798.125" y2="175.5" gradientUnits="userSpaceOnUse">
<stop stop-color="#EBF3FE"/>
<stop offset="1" stop-color="white"/>
</linearGradient>
<linearGradient id="paint4_linear_192_599" x1="798.125" y1="118.166" x2="798.125" y2="175.5" gradientUnits="userSpaceOnUse">
<stop stop-color="#EBF3FE"/>
<stop offset="1" stop-color="white"/>
</linearGradient>
<linearGradient id="paint5_linear_192_599" x1="798.125" y1="118.166" x2="798.125" y2="175.5" gradientUnits="userSpaceOnUse">
<stop stop-color="#EBF3FE"/>
<stop offset="1" stop-color="white"/>
</linearGradient>
<linearGradient id="paint6_linear_192_599" x1="798.125" y1="118.166" x2="798.125" y2="175.5" gradientUnits="userSpaceOnUse">
<stop stop-color="#EBF3FE"/>
<stop offset="1" stop-color="white"/>
</linearGradient>
<linearGradient id="paint7_linear_192_599" x1="798.125" y1="118.166" x2="798.125" y2="175.5" gradientUnits="userSpaceOnUse">
<stop stop-color="#EBF3FE"/>
<stop offset="1" stop-color="white"/>
</linearGradient>
<linearGradient id="paint8_linear_192_599" x1="798.125" y1="118.166" x2="798.125" y2="175.5" gradientUnits="userSpaceOnUse">
<stop stop-color="#EBF3FE"/>
<stop offset="1" stop-color="white"/>
</linearGradient>
<linearGradient id="paint9_linear_192_599" x1="798.125" y1="118.166" x2="798.125" y2="175.5" gradientUnits="userSpaceOnUse">
<stop stop-color="#EBF3FE"/>
<stop offset="1" stop-color="white"/>
</linearGradient>
<linearGradient id="paint10_linear_192_599" x1="798.125" y1="118.166" x2="798.125" y2="175.5" gradientUnits="userSpaceOnUse">
<stop stop-color="#EBF3FE"/>
<stop offset="1" stop-color="white"/>
</linearGradient>
<linearGradient id="paint11_linear_192_599" x1="798.125" y1="118.166" x2="798.125" y2="175.5" gradientUnits="userSpaceOnUse">
<stop stop-color="#EBF3FE"/>
<stop offset="1" stop-color="white"/>
</linearGradient>
<linearGradient id="paint12_linear_192_599" x1="798.125" y1="118.166" x2="798.125" y2="175.5" gradientUnits="userSpaceOnUse">
<stop stop-color="#EBF3FE"/>
<stop offset="1" stop-color="white"/>
</linearGradient>
<linearGradient id="paint13_linear_192_599" x1="798.125" y1="118.166" x2="798.125" y2="175.5" gradientUnits="userSpaceOnUse">
<stop stop-color="#EBF3FE"/>
<stop offset="1" stop-color="white"/>
</linearGradient>
<linearGradient id="paint14_linear_192_599" x1="734.108" y1="20" x2="304" y2="20" gradientUnits="userSpaceOnUse">
<stop stop-color="white"/>
<stop offset="1" stop-color="#80B5FF"/>
</linearGradient>
<linearGradient id="paint15_linear_192_599" x1="899.134" y1="23" x2="1259" y2="23" gradientUnits="userSpaceOnUse">
<stop stop-color="#80B5FF"/>
<stop offset="1" stop-color="white"/>
</linearGradient>
<clipPath id="clip0_192_599">
<rect width="1160" height="220" fill="white"/>
</clipPath>
</defs>
</svg>
